# xmcd
#
# Track frame offsets:
#	150
#	12230
#	31439
#	49523
#	61863
#	74468
#	88858
#
# Disc length: 1358 seconds
# Revision: 0
# Processed by: cddbd v1.5.2PL0 Copyright (c) Steve Scherf et al.
# Submitted via: dBpowerAMP V12.0
#
DISCID=56054c07
DTITLE=Kyle Ledson - Crooked Mandolin
DYEAR=2016
DGENRE=Country
TTITLE0=Never Loved Me
TTITLE1=Don't Come to Me
TTITLE2=Road Signs
TTITLE3=Sleepy Willow (Part 1)
TTITLE4=Sleepy Willow (Part 2)
TTITLE5=Crooked Mandolin
TTITLE6=The Wast Was Burning
EXTD=
EXTT0=
EXTT1=
EXTT2=
EXTT3=
EXTT4=
EXTT5=
EXTT6=
PLAYORDER=
